<svg xmlns="http://www.w3.org/2000/svg" xmlns:xlink="http://www.w3.org/1999/xlink" width="40" zoomAndPan="magnify" viewBox="0 0 30 30.000001" height="40" preserveAspectRatio="xMidYMid meet" version="1.0"><defs><clipPath id="588d713f2a"><path d="M 3.058594 2.578125 L 27.011719 2.578125 L 27.011719 26.527344 L 3.058594 26.527344 Z M 3.058594 2.578125 " clip-rule="nonzero"/></clipPath><clipPath id="16c61d0250"><path d="M 9 7 L 21 7 L 21 26.527344 L 9 26.527344 Z M 9 7 " clip-rule="nonzero"/></clipPath></defs><g clip-path="url(#588d713f2a)"><path fill="#0866ff" d="M 27.015625 14.554688 C 27.015625 7.9375 21.652344 2.578125 15.039062 2.578125 C 8.421875 2.578125 3.058594 7.9375 3.058594 14.554688 C 3.058594 20.171875 6.925781 24.886719 12.144531 26.179688 L 12.144531 18.214844 L 9.675781 18.214844 L 9.675781 14.554688 L 12.144531 14.554688 L 12.144531 12.976562 C 12.144531 8.902344 13.988281 7.011719 17.992188 7.011719 C 18.75 7.011719 20.058594 7.160156 20.59375 7.308594 L 20.59375 10.625 C 20.3125 10.597656 19.820312 10.582031 19.210938 10.582031 C 17.246094 10.582031 16.488281 11.324219 16.488281 13.257812 L 16.488281 14.554688 L 20.402344 14.554688 L 19.730469 18.214844 L 16.488281 18.214844 L 16.488281 26.441406 C 22.417969 25.726562 27.015625 20.675781 27.015625 14.554688 Z M 27.015625 14.554688 " fill-opacity="1" fill-rule="nonzero"/></g><g clip-path="url(#16c61d0250)"><path fill="#ffffff" d="M 19.730469 18.214844 L 20.402344 14.554688 L 16.488281 14.554688 L 16.488281 13.257812 C 16.488281 11.324219 17.25 10.582031 19.210938 10.582031 C 19.824219 10.582031 20.3125 10.597656 20.597656 10.625 L 20.597656 7.308594 C 20.0625 7.160156 18.75 7.011719 17.992188 7.011719 C 13.992188 7.011719 12.144531 8.902344 12.144531 12.976562 L 12.144531 14.554688 L 9.675781 14.554688 L 9.675781 18.214844 L 12.144531 18.214844 L 12.144531 26.179688 C 13.070312 26.410156 14.039062 26.53125 15.039062 26.53125 C 15.53125 26.53125 16.015625 26.503906 16.492188 26.445312 L 16.492188 18.214844 Z M 19.730469 18.214844 " fill-opacity="1" fill-rule="nonzero"/></g></svg>