<svg xmlns="http://www.w3.org/2000/svg" xmlns:xlink="http://www.w3.org/1999/xlink" width="40" zoomAndPan="magnify" viewBox="0 0 30 30.000001" height="40" preserveAspectRatio="xMidYMid meet" version="1.0"><defs><clipPath id="aaf110efbd"><path d="M 2.878906 2.394531 L 26.832031 2.394531 L 26.832031 26.347656 L 2.878906 26.347656 Z M 2.878906 2.394531 " clip-rule="nonzero"/></clipPath></defs><g clip-path="url(#aaf110efbd)"><path fill="#000000" d="M 26.835938 14.375 C 26.835938 15.160156 26.757812 15.9375 26.605469 16.710938 C 26.453125 17.480469 26.222656 18.230469 25.921875 18.957031 C 25.621094 19.683594 25.253906 20.375 24.816406 21.027344 C 24.378906 21.679688 23.882812 22.285156 23.328125 22.84375 C 22.769531 23.398438 22.164062 23.894531 21.511719 24.332031 C 20.859375 24.769531 20.167969 25.136719 19.441406 25.4375 C 18.714844 25.742188 17.964844 25.96875 17.195312 26.121094 C 16.421875 26.273438 15.644531 26.351562 14.855469 26.351562 C 14.070312 26.351562 13.292969 26.273438 12.519531 26.121094 C 11.75 25.96875 11 25.742188 10.273438 25.4375 C 9.546875 25.136719 8.855469 24.769531 8.203125 24.332031 C 7.546875 23.894531 6.945312 23.398438 6.386719 22.84375 C 5.832031 22.285156 5.335938 21.679688 4.898438 21.027344 C 4.460938 20.375 4.089844 19.683594 3.789062 18.957031 C 3.488281 18.230469 3.261719 17.480469 3.109375 16.710938 C 2.957031 15.9375 2.878906 15.160156 2.878906 14.375 C 2.878906 13.585938 2.957031 12.808594 3.109375 12.035156 C 3.261719 11.265625 3.488281 10.515625 3.789062 9.789062 C 4.089844 9.0625 4.460938 8.371094 4.898438 7.71875 C 5.335938 7.066406 5.832031 6.460938 6.386719 5.902344 C 6.945312 5.347656 7.546875 4.851562 8.203125 4.414062 C 8.855469 3.976562 9.546875 3.609375 10.273438 3.308594 C 11 3.007812 11.75 2.777344 12.519531 2.625 C 13.292969 2.472656 14.070312 2.394531 14.855469 2.394531 C 15.644531 2.394531 16.421875 2.472656 17.195312 2.625 C 17.964844 2.777344 18.714844 3.007812 19.441406 3.308594 C 20.167969 3.609375 20.859375 3.976562 21.511719 4.414062 C 22.164062 4.851562 22.769531 5.347656 23.328125 5.902344 C 23.882812 6.460938 24.378906 7.066406 24.816406 7.71875 C 25.253906 8.371094 25.621094 9.0625 25.921875 9.789062 C 26.222656 10.515625 26.453125 11.265625 26.605469 12.035156 C 26.757812 12.808594 26.835938 13.585938 26.835938 14.375 Z M 26.835938 14.375 " fill-opacity="1" fill-rule="nonzero"/></g><path fill="#25f4ee" d="M 13.265625 12.660156 L 13.265625 12.011719 C 13.050781 11.980469 12.828125 11.964844 12.601562 11.964844 C 9.882812 11.964844 7.671875 14.175781 7.671875 16.894531 C 7.671875 18.5625 8.503906 20.039062 9.777344 20.933594 C 8.957031 20.050781 8.46875 18.871094 8.46875 17.574219 C 8.46875 14.894531 10.601562 12.722656 13.265625 12.660156 Z M 13.265625 12.660156 " fill-opacity="1" fill-rule="nonzero"/><path fill="#25f4ee" d="M 13.382812 19.839844 C 14.597656 19.839844 15.601562 18.863281 15.644531 17.660156 L 15.65625 6.933594 L 17.601562 6.933594 C 17.601562 6.933594 17.597656 6.921875 17.597656 6.921875 C 17.554688 6.699219 17.535156 6.472656 17.535156 6.242188 L 14.855469 6.242188 L 14.851562 16.980469 C 14.804688 18.183594 13.816406 19.148438 12.601562 19.148438 C 12.226562 19.148438 11.871094 19.054688 11.558594 18.890625 C 11.96875 19.457031 12.632812 19.84375 13.382812 19.84375 Z M 13.382812 19.839844 " fill-opacity="1" fill-rule="nonzero"/><path fill="#25f4ee" d="M 21.261719 10.597656 L 21.261719 9.964844 C 20.515625 9.964844 19.816406 9.746094 19.234375 9.363281 C 19.753906 9.960938 20.460938 10.425781 21.261719 10.59375 Z M 21.261719 10.597656 " fill-opacity="1" fill-rule="nonzero"/><path fill="#fe2c55" d="M 19.234375 9.363281 C 18.664062 8.707031 18.316406 7.855469 18.316406 6.917969 L 17.585938 6.917969 C 17.777344 7.941406 18.394531 8.816406 19.234375 9.363281 Z M 19.234375 9.363281 " fill-opacity="1" fill-rule="nonzero"/><path fill="#fe2c55" d="M 12.601562 14.621094 C 11.359375 14.621094 10.335938 15.652344 10.335938 16.894531 C 10.335938 17.757812 10.839844 18.511719 11.558594 18.886719 C 11.289062 18.519531 11.128906 18.066406 11.128906 17.574219 C 11.128906 16.332031 12.140625 15.320312 13.382812 15.320312 C 13.613281 15.320312 13.835938 15.359375 14.046875 15.425781 L 14.046875 12.691406 C 13.828125 12.660156 13.609375 12.644531 13.382812 12.644531 C 13.34375 12.644531 13.304688 12.644531 13.265625 12.644531 L 13.257812 12.644531 C 13.257812 12.644531 13.25 14.714844 13.25 14.714844 C 13.039062 14.652344 12.835938 14.621094 12.601562 14.621094 Z M 12.601562 14.621094 " fill-opacity="1" fill-rule="nonzero"/><path fill="#fe2c55" d="M 21.261719 10.5625 L 21.25 10.5625 L 21.25 12.632812 C 19.859375 12.632812 18.570312 12.171875 17.519531 11.417969 L 17.519531 16.894531 C 17.519531 19.613281 15.320312 21.8125 12.601562 21.8125 C 11.550781 21.8125 10.578125 21.492188 9.773438 20.929688 C 10.675781 21.898438 11.960938 22.503906 13.382812 22.503906 C 16.101562 22.503906 18.316406 20.292969 18.316406 17.574219 L 18.316406 12.128906 C 19.367188 12.882812 20.652344 13.328125 22.042969 13.328125 L 22.042969 10.648438 C 21.773438 10.648438 21.515625 10.617188 21.261719 10.5625 Z M 21.261719 10.5625 " fill-opacity="1" fill-rule="nonzero"/><path fill="#ffffff" d="M 17.535156 16.894531 L 17.535156 11.449219 C 18.585938 12.203125 19.871094 12.648438 21.261719 12.648438 L 21.261719 10.5625 C 20.457031 10.390625 19.753906 9.960938 19.230469 9.363281 C 18.390625 8.816406 17.785156 7.941406 17.597656 6.917969 L 15.632812 6.917969 L 15.628906 17.660156 C 15.585938 18.863281 14.59375 19.824219 13.382812 19.824219 C 12.628906 19.824219 11.964844 19.453125 11.554688 18.886719 C 10.839844 18.507812 10.347656 17.757812 10.347656 16.894531 C 10.347656 15.652344 11.359375 14.640625 12.601562 14.640625 C 12.832031 14.640625 13.054688 14.679688 13.265625 14.746094 L 13.265625 12.644531 C 10.597656 12.707031 8.449219 14.890625 8.449219 17.574219 C 8.449219 18.871094 8.953125 20.050781 9.773438 20.933594 C 10.574219 21.496094 11.550781 21.824219 12.601562 21.824219 C 15.320312 21.824219 17.53125 19.613281 17.53125 16.894531 Z M 17.535156 16.894531 " fill-opacity="1" fill-rule="nonzero"/></svg>